<?xml version="1.0" encoding="UTF-8"?>
<svg version="1.1" viewBox="0 0 2351.3 2351.3" xml:space="preserve" 
   xmlns="http://www.w3.org/2000/svg" 
   xmlns:cc="http://creativecommons.org/ns#" 
   xmlns:dc="http://purl.org/dc/elements/1.1/" 
   xmlns:rdf="http://www.w3.org/1999/02/22-rdf-syntax-ns#">

   <path d="m-73.325-73.4h2500v2500h-2500z" fill="#f3f4f4" fill-rule="evenodd" stroke-width="1.25"/>
   <path d="m489.17 1526.7h262.5v237.5h-262.5z" fill="#7fc7ed" fill-rule="evenodd" stroke-width="1.25"/>
   <path d="m2239.2 2214.2h187.5v212.5h-187.5z" fill="#7fc7ed" fill-rule="evenodd" stroke-width="1.25"/>
   <path d="m814.17 1889.2h325v262.09h-325z" fill="#7fc7ed" fill-rule="evenodd" stroke-width="1.25"/>
   <path d="m1814.2-73.4h362.5v275h-362.5z" fill="#7fc7ed" fill-rule="evenodd" stroke-width="1.25"/>
   <path d="m1351.7 264.1h825v1012.5h-825z" fill="#83cdac" fill-rule="evenodd" stroke-width="1.25"/>
   <path d="m-73.325 264.1h175v1200h-175z" fill="#83cdac" fill-rule="evenodd" stroke-width="1.25"/>
   <path d="m489.17 2214.2h262.5v212.5h-262.5z" fill="#83cdac" fill-rule="evenodd" stroke-width="1.25"/>
   <path d="m1289.2 576.6h-1187.5v-25h1187.5z" fill="#ececec" fill-rule="evenodd" stroke-width="1.25"/>
   <path d="m814.17 1214.2h-712.5v-25h712.5z" fill="#ececec" fill-rule="evenodd" stroke-width="1.25"/>
   <path d="m1039.2 76.6h-1112.5v-25h1112.5z" fill="#ececec" fill-rule="evenodd" stroke-width="1.25"/>
   <path d="m489.17 1701.7h-562.5v-25h562.5z" fill="#ececec" fill-rule="evenodd" stroke-width="1.25"/>
   <path d="m2426.7 476.6h-187.5v-25h187.5z" fill="#ececec" fill-rule="evenodd" stroke-width="1.25"/>
   <path d="m2426.7 1189.1h-187.5v-25h187.5z" fill="#ececec" fill-rule="evenodd" stroke-width="1.25"/>
   <path d="m2426.7 1501.7h-187.5v-25h187.5z" fill="#ececec" fill-rule="evenodd" stroke-width="1.25"/>
   <path d="m814.17 2026.7h-887.5v-25h887.5z" fill="#ececec" fill-rule="evenodd" stroke-width="1.25"/>
   <path d="m2176.7 1639.2h-975v-25h975z" fill="#ececec" fill-rule="evenodd" stroke-width="1.25"/>
   <path d="m1014.2-73.4h25v1137.5h-25z" fill="#ececec" fill-rule="evenodd" stroke-width="1.25"/>
   <path d="m1014.2 2214.2h25v212.5h-25z" fill="#ececec" fill-rule="evenodd" stroke-width="1.25"/>
   <path d="m1864.2 1614.2h25v537.5h-25z" fill="#ececec" fill-rule="evenodd" stroke-width="1.25"/>
   <path d="m2426.7 264.1h-2500v-62.5h2500z" fill="#fff" fill-rule="evenodd" stroke-width="1.25"/>
   <path d="m814.17 1526.7h-887.5v-62.5h887.5z" fill="#fff" fill-rule="evenodd" stroke-width="1.25"/>
   <path d="m2239.2 1339.2h-1433.8v-62.5h1433.8z" fill="#fff" fill-rule="evenodd" stroke-width="1.25"/>
   <path d="m2426.7 2214.2h-2500v-62.5h2500z" fill="#fff" fill-rule="evenodd" stroke-width="1.25"/>
   <path d="m2426.7 1064.1h-1675v-62.5h1675z" fill="#fff" fill-rule="evenodd" stroke-width="1.25"/>
   <path d="m101.67-73.4h62.5v2500h-62.5z" fill="#fff" fill-rule="evenodd" stroke-width="1.25"/>
   <path d="m2176.7-73.4h62.5v2500h-62.5z" fill="#fff" fill-rule="evenodd" stroke-width="1.25"/>
   <path d="m751.67-73.4h62.5v2500h-62.5z" fill="#fff" fill-rule="evenodd" stroke-width="1.25"/>
   <path d="m1289.2 201.6h62.5v1137.5h-62.5z" fill="#fff" fill-rule="evenodd" stroke-width="1.25"/>
   <path d="m1139.2 1339.2h62.5v875h-62.5z" fill="#fff" fill-rule="evenodd" stroke-width="1.25"/>
   <path d="m1751.7-73.4h62.5v1137.5h-62.5z" fill="#fff" fill-rule="evenodd" stroke-width="1.25"/>
   <path d="m364.17-73.4h125v2500h-125z" fill="#fee379" fill-rule="evenodd" stroke-width="1.25"/>
   <path d="m1551.7-73.4h125v2500h-125z" fill="#fee379" fill-rule="evenodd" stroke-width="1.25"/>
   <path d="m2426.7 851.6h-2500v-125h2500z" fill="#fee379" fill-rule="evenodd" stroke-width="1.25"/>
   <path d="m2425.5 1889.2h-1936.2v-125h1936.2z" fill="#fee379" fill-rule="evenodd" stroke-width="1.25"/>
   <metadata>
      <rdf:RDF>
         <cc:Work>
            <dc:format>image/svg+xml</dc:format>
            <dc:type rdf:resource="http://purl.org/dc/dcmitype/StillImage"/>
            <cc:license rdf:resource="http://creativecommons.org/licenses/publicdomain/"/>
            <dc:publisher>
               <cc:Agent rdf:about="http://openclipart.org/">
                  <dc:title>Openclipart</dc:title>
               </cc:Agent>
            </dc:publisher>
            <dc:title/>
         </cc:Work>
         <cc:License rdf:about="http://creativecommons.org/licenses/publicdomain/">
            <cc:permits rdf:resource="http://creativecommons.org/ns#Reproduction"/>
            <cc:permits rdf:resource="http://creativecommons.org/ns#Distribution"/>
            <cc:permits rdf:resource="http://creativecommons.org/ns#DerivativeWorks"/>
         </cc:License>
      </rdf:RDF>
   </metadata>
</svg>
