<svg id="Capa_1" enable-background="new 0 0 512.008 512.008" height="512" viewBox="0 0 512.008 512.008" width="512" xmlns="http://www.w3.org/2000/svg"><g><g><path d="m104.085 471.37c-6.823 19.302-25.232 33.131-46.871 33.131-27.448 0-49.699-22.251-49.699-49.699s22.251-49.699 49.699-49.699c21.638 0 40.047 13.828 46.87 33.13z" fill="#60b7ff"/><path d="m104.084 438.232c-6.824-19.301-25.232-33.13-46.87-33.13-3.952 0-7.792.475-11.478 1.347 16.475 3.911 29.775 16.02 35.348 31.783l.001 33.137c-5.572 15.764-18.873 27.873-35.349 31.784 3.686.872 7.525 1.347 11.478 1.347 21.639 0 40.048-13.829 46.871-33.131z" fill="#26a6fe"/><g><path d="m171.999 438.234c-8.063-56.124-56.466-99.397-114.785-99.397-13.254 0-26.26 2.221-38.656 6.604-8.626 3.048-13.148 12.514-10.099 21.14s12.515 13.151 21.14 10.098c8.841-3.124 18.132-4.709 27.614-4.709 40.004 0 73.475 28.505 81.169 66.27l15.958 12.098z" fill="#dddaec"/><path d="m57.214 338.837c-3.835 0-7.646.208-11.431.579 53.049 5.279 95.693 46.452 103.216 98.818l-5.579 3.824 10.921 8.28 17.658-12.104c-8.063-56.124-56.466-99.397-114.785-99.397z" fill="#beb9dd"/></g><path d="m421.124 320.086-79.776 135.005c-5.961 10.088-16.807 16.277-28.525 16.277h-255.609c-9.415 0-16.995-7.854-16.548-17.367.42-8.91 8.095-15.766 17.015-15.766h245.689c5.859 0 11.282-3.095 14.263-8.139l97.338-164.726 17.821 13.133z" fill="#f9f6f6"/><path d="m414.971 265.371-19.559 33.099 6.181 54.669 19.531-33.053 11.668-41.582z" fill="#dddaec"/><path d="m464.127 405.974c22.994 4.361 40.382 24.564 40.382 48.827 0 27.448-22.251 49.699-49.699 49.699s-49.699-22.251-49.699-49.699c0-18.871 10.517-35.285 26.01-43.701z" fill="#60b7ff"/><path d="m464.127 405.974-14.754 2.292c18.826 7.073 32.224 25.238 32.224 46.536 0 23.503-16.321 43.183-38.244 48.357 3.679.868 7.511 1.342 11.456 1.342 27.448 0 49.699-22.251 49.699-49.699 0-24.264-17.387-44.466-40.381-48.828z" fill="#26a6fe"/><path d="m424.973 58.266c-.982-8.732-5.393-16.717-12.262-22.197l-31.264-24.943-15.301 30.178 20.537 16.385c3.434 2.74 5.64 6.732 6.131 11.099l43.744 388.533c.988 8.781 8.907 15.099 17.688 14.112l1.126-.127c8.781-.988 15.099-8.907 14.112-17.688z" fill="#f9f6f6"/><path d="m469.483 453.617-44.51-395.351c-.982-8.732-5.393-16.717-12.262-22.197l-31.264-24.943-6.624 13.065 14.888 11.878c6.869 5.48 11.28 13.465 12.262 22.197l44.511 395.351c.59 5.249-1.442 10.177-5.038 13.513 3.306 3.136 7.918 4.85 12.801 4.301l1.126-.126c8.78-.988 15.098-8.907 14.11-17.688z" fill="#dddaec"/><g><path d="m406.872 193.354c-9.092 1.022-15.634 9.222-14.611 18.314s9.222 15.634 18.314 14.611l32.925-3.703c9.092-1.022 15.634-9.222 14.611-18.314-1.022-9.092-9.222-15.634-18.314-14.611z" fill="#365e7d"/><path d="m425.111 355.538c-9.092 1.022-15.634 9.222-14.611 18.314 1.022 9.092 9.222 15.634 18.314 14.611l32.925-3.703c9.092-1.023 15.634-9.222 14.611-18.314s-9.222-15.634-18.314-14.611z" fill="#365e7d"/><g fill="#2b4d66"><path d="m476.351 366.446c-1.023-9.092-9.222-15.634-18.314-14.611l-13.932 1.567c4.939 2.399 8.587 7.185 9.246 13.045 1.022 9.092-5.519 17.292-14.611 18.314l-18.993 2.136c2.724 1.323 5.836 1.93 9.068 1.567l32.925-3.703c9.092-1.024 15.633-9.223 14.611-18.315z"/><path d="m458.111 204.263c-1.022-9.092-9.222-15.634-18.314-14.611l-13.932 1.567c4.939 2.399 8.587 7.184 9.246 13.044 1.022 9.092-5.519 17.291-14.611 18.314l-18.994 2.136c2.724 1.323 5.836 1.93 9.068 1.567l32.925-3.703c9.093-1.023 15.635-9.222 14.612-18.314z"/></g></g><path d="m336.338 11.316 32.925-3.703c9.092-1.023 17.292 5.519 18.314 14.611 1.023 9.092-5.519 17.292-14.611 18.314l-32.925 3.703z" fill="#60b7ff"/><ellipse cx="338.19" cy="27.778" fill="#26a6fe" rx="16.566" ry="16.566" transform="matrix(.318 -.948 .948 .318 204.406 339.621)"/></g><path d="m470.993 399.934-1.097-9.754c9.195-4.214 15.098-13.987 13.908-24.572-.718-6.389-3.881-12.114-8.907-16.123-3.003-2.396-6.456-3.999-10.112-4.754l-13.128-116.734c9.194-4.214 15.097-13.987 13.907-24.572-.719-6.389-3.881-12.114-8.907-16.123-3.003-2.395-6.458-3.999-10.115-4.755l-14.116-125.119c-1.213-10.785-6.553-20.453-15.038-27.222l-31.255-24.935c-.003-.003-.006-.005-.01-.008-5.025-4.01-11.308-5.818-17.699-5.103l-32.924 3.703c-.001 0-.002 0-.003 0-13.186 1.485-22.706 13.418-21.224 26.605.719 6.389 3.882 12.114 8.907 16.123 4.305 3.435 9.534 5.257 14.96 5.257.908 0 1.822-.052 2.738-.154l23.021-2.588 18.107 14.447c1.865 1.487 3.087 3.701 3.355 6.076l13.351 118.298c-3.396 1.549-6.406 3.88-8.801 6.882-4.009 5.025-5.821 11.311-5.103 17.698.718 6.389 3.881 12.114 8.907 16.123 3.001 2.395 6.457 3.986 10.111 4.742l3.413 30.344-96.061 162.566c-1.623 2.747-4.614 4.453-7.805 4.453h-125.058c-5.284-26.589-19.298-50.858-39.926-68.893-22.501-19.672-51.33-30.506-81.175-30.506-14.108 0-27.955 2.366-41.155 7.032-6.061 2.143-10.925 6.517-13.696 12.317-2.771 5.801-3.117 12.333-.975 18.394s6.517 10.926 12.317 13.696c5.802 2.773 12.335 3.119 18.394.974 8.038-2.84 16.488-4.28 25.115-4.28 32.514 0 61.183 21.077 71.382 51.266h-19.49c-9.29-20.017-29.507-33.133-51.893-33.133-31.54 0-57.199 25.66-57.199 57.2s25.66 57.199 57.199 57.199c22.386 0 42.603-13.116 51.892-33.133h203.717c14.302 0 27.706-7.648 34.983-19.962l57.309-96.984c-1.788 3.86-2.576 8.24-2.067 12.767 1.19 10.584 9.117 18.792 19.017 20.859l1.291 11.479c-15.991 10.534-25.746 28.419-25.746 47.774 0 31.54 25.66 57.199 57.2 57.199 31.539 0 57.199-25.659 57.199-57.199 0-25.556-16.945-47.794-41.015-54.867zm-8.963 54.52c.524 4.658-2.839 8.873-7.492 9.397l-1.131.126c-2.26.253-4.476-.386-6.25-1.802s-2.892-3.439-3.146-5.694l-2.928-26.036 18.019-2.027zm-4.604-40.941-18.019 2.027-2.301-20.461 7.516-.846 10.504-1.181zm-25.7-66.267-12.86-114.351 8.021-.902 9.999-1.124 12.86 114.351-9.654 1.086zm-61.624-332.18c2.406-.272 4.774.412 6.667 1.923 1.894 1.51 3.085 3.667 3.355 6.073.271 2.407-.412 4.774-1.922 6.668-1.51 1.893-3.667 3.085-6.074 3.355l-6.783.763c-.025.003-.05.005-.074.008l-3.904.439c.83-2.953 1.091-6.066.738-9.206s-1.3-6.119-2.765-8.813zm-40.922 13.726c-.559-4.969 3.028-9.465 7.997-10.024.345-.039.688-.058 1.031-.058 2.044 0 4.015.687 5.636 1.981 1.893 1.51 3.085 3.667 3.355 6.073s-.412 4.774-1.922 6.667c-1.51 1.894-3.668 3.085-6.075 3.356-2.406.271-4.773-.411-6.667-1.922-1.893-1.509-3.084-3.666-3.355-6.073zm62.181 23.035-8.465-6.754c2.675-1.501 5.061-3.518 7.032-5.988s3.407-5.245 4.276-8.187l13.829 11.033c5.352 4.271 8.721 10.369 9.486 17.176l13.983 123.93-18.019 2.026-13.216-117.113c-.718-6.39-3.881-12.117-8.906-16.123zm8.353 159.003c-.271-2.407.412-4.774 1.922-6.668s3.668-3.085 6.074-3.355l32.926-3.702c2.407-.274 4.774.411 6.667 1.922 1.893 1.51 3.085 3.667 3.355 6.073.559 4.969-3.028 9.465-7.996 10.023l-32.926 3.703c-2.406.268-4.774-.413-6.667-1.923-1.893-1.509-3.085-3.666-3.355-6.073zm-342.5 253.039c-2.503 0-4.833-.998-6.562-2.81-1.727-1.811-2.613-4.192-2.495-6.705.224-4.753 4.497-8.619 9.524-8.619h106.817v18.134zm0-99.4c-10.335 0-20.466 1.729-30.117 5.139-2.281.808-4.741.678-6.926-.366-2.186-1.044-3.833-2.877-4.641-5.161-.807-2.283-.677-4.744.367-6.929 1.044-2.186 2.876-3.834 5.16-4.641 11.591-4.098 23.756-6.175 36.156-6.175 50.663 0 94.674 35.719 105.766 84.398h-18.711c-10.716-38.74-46.371-66.265-87.054-66.265zm0 132.532c-23.269 0-42.199-18.931-42.199-42.199 0-23.27 18.931-42.2 42.199-42.2 14.03 0 26.907 6.981 34.668 18.133h-34.2c-13.137 0-23.902 10.064-24.507 22.913-.313 6.65 2.04 12.959 6.625 17.766 4.521 4.737 10.868 7.455 17.415 7.455h34.669c-7.762 11.151-20.639 18.132-34.67 18.132zm277.678-45.725c-4.59 7.768-13.046 12.593-22.068 12.593h-133.325v-18.134h123.872c8.471 0 16.41-4.53 20.719-11.822l85.933-145.426 3.368 29.945zm72.661-93.481 8.623-14.593.778 6.916c-3.777 1.731-6.998 4.398-9.401 7.677zm10.4 15.219c-.559-4.969 3.028-9.465 7.996-10.023l32.926-3.703c2.407-.277 4.774.412 6.667 1.923 1.893 1.51 3.085 3.667 3.355 6.073.559 4.969-3.028 9.465-7.997 10.023l-32.925 3.703c-4.97.562-9.463-3.029-10.022-7.996zm36.856 123.987c-23.269 0-42.2-18.931-42.2-42.199 0-11.534 4.699-22.36 12.722-30.195l3.773 33.551c.702 6.237 3.79 11.828 8.697 15.743 4.204 3.354 9.311 5.133 14.607 5.133.886 0 1.777-.05 2.67-.15l1.131-.126c12.876-1.449 22.174-13.104 20.726-25.98l-3.766-33.487v-.001-.001l-.297-2.639c14.439 6.837 24.135 21.544 24.135 38.152.001 23.269-18.93 42.199-42.198 42.199z"/></g></svg>